<mxfile host="app.diagrams.net" modified="2020-12-27T13:50:49.166Z" agent="5.0 (Windows NT 10.0; Win64; x64) AppleWebKit/537.36 (KHTML, like Gecko) Chrome/87.0.4280.88 Safari/537.36" etag="7SzVL9t8euZTyUiaL-aA" version="14.1.1" type="github">
  <diagram id="kgpKYQtTHZ0yAKxKKP6v" name="Page-1">
    <mxGraphModel dx="1038" dy="580" grid="1" gridSize="10" guides="1" tooltips="1" connect="1" arrows="1" fold="1" page="1" pageScale="1" pageWidth="850" pageHeight="1100" background="#ffffff" math="0" shadow="0">
      <root>
        <mxCell id="0" />
        <mxCell id="1" parent="0" />
        <mxCell id="3nuBFxr9cyL0pnOWT2aG-1" value="process 0 (Manager)" style="shape=umlLifeline;perimeter=lifelinePerimeter;container=1;collapsible=0;recursiveResize=0;rounded=0;shadow=0;strokeWidth=1;" parent="1" vertex="1">
          <mxGeometry x="120" y="80" width="130" height="1820" as="geometry" />
        </mxCell>
        <mxCell id="a9l5pLSL9QNRwOaksO37-3" value="&lt;div style=&quot;text-align: center&quot;&gt;&lt;span&gt;MPI_Irecv(&lt;/span&gt;&lt;/div&gt;&amp;amp;dict_size,&lt;br&gt;MPI_ANY_SOURCE,&lt;br&gt;&lt;div&gt;DICT_SIZE_MSG,&lt;/div&gt;&lt;div&gt;&amp;amp;pending&lt;/div&gt;)" style="rounded=0;whiteSpace=wrap;html=1;align=left;" parent="3nuBFxr9cyL0pnOWT2aG-1" vertex="1">
          <mxGeometry x="10" y="60" width="120" height="120" as="geometry" />
        </mxCell>
        <mxCell id="a9l5pLSL9QNRwOaksO37-5" value="&lt;div style=&quot;text-align: center&quot;&gt;&lt;span&gt;MPI_Wait(&lt;/span&gt;&lt;/div&gt;&lt;div style=&quot;text-align: center&quot;&gt;&amp;amp;pending,&lt;/div&gt;&lt;div style=&quot;text-align: center&quot;&gt;&amp;amp;status&lt;/div&gt;)" style="rounded=0;whiteSpace=wrap;html=1;align=left;" parent="3nuBFxr9cyL0pnOWT2aG-1" vertex="1">
          <mxGeometry x="30" y="240" width="65" height="80" as="geometry" />
        </mxCell>
        <mxCell id="a9l5pLSL9QNRwOaksO37-72" value="&lt;div style=&quot;text-align: center&quot;&gt;&lt;span&gt;MPI_Recv(&lt;/span&gt;&lt;/div&gt;&amp;amp;dict_size,&lt;br&gt;MPI_ANY_SOURCE,&lt;br&gt;&lt;div&gt;DICT_SIZE_MSG,&lt;/div&gt;&lt;div&gt;&amp;amp;pending&lt;/div&gt;)" style="rounded=0;whiteSpace=wrap;html=1;align=left;" parent="3nuBFxr9cyL0pnOWT2aG-1" vertex="1">
          <mxGeometry x="5" y="1590" width="120" height="120" as="geometry" />
        </mxCell>
        <mxCell id="3nuBFxr9cyL0pnOWT2aG-5" value="process 1 (read worker)" style="shape=umlLifeline;perimeter=lifelinePerimeter;container=1;collapsible=0;recursiveResize=0;rounded=0;shadow=0;strokeWidth=1;" parent="1" vertex="1">
          <mxGeometry x="300" y="80" width="140" height="1780" as="geometry" />
        </mxCell>
        <mxCell id="a9l5pLSL9QNRwOaksO37-57" value="&lt;div style=&quot;text-align: center&quot;&gt;&lt;span&gt;MPI_Prob(&lt;/span&gt;&lt;/div&gt;&lt;div&gt;0,&lt;/div&gt;&lt;div&gt;FILE_NAME_MSG,&lt;/div&gt;&lt;div&gt;&amp;amp;status&lt;/div&gt;)" style="rounded=0;whiteSpace=wrap;html=1;align=left;" parent="3nuBFxr9cyL0pnOWT2aG-5" vertex="1">
          <mxGeometry x="9.99" y="850" width="120" height="80" as="geometry" />
        </mxCell>
        <mxCell id="a9l5pLSL9QNRwOaksO37-58" value="&lt;div style=&quot;text-align: center&quot;&gt;&lt;span&gt;MPI_Get_count(&lt;/span&gt;&lt;/div&gt;&lt;div&gt;&lt;span&gt;&amp;amp;status,&lt;/span&gt;&lt;br&gt;&lt;/div&gt;&lt;div&gt;&lt;span&gt;&amp;amp;name_len&lt;/span&gt;&lt;/div&gt;)" style="rounded=0;whiteSpace=wrap;html=1;align=left;" parent="3nuBFxr9cyL0pnOWT2aG-5" vertex="1">
          <mxGeometry x="20" y="940" width="100" height="80" as="geometry" />
        </mxCell>
        <mxCell id="a9l5pLSL9QNRwOaksO37-78" value="&lt;div style=&quot;text-align: center&quot;&gt;Terminate&lt;/div&gt;&lt;div style=&quot;text-align: center&quot;&gt;&lt;/div&gt;" style="rounded=0;whiteSpace=wrap;html=1;align=left;" parent="3nuBFxr9cyL0pnOWT2aG-5" vertex="1">
          <mxGeometry x="45.32000000000005" y="1570" width="54.37" height="40" as="geometry" />
        </mxCell>
        <mxCell id="a9l5pLSL9QNRwOaksO37-9" value="&lt;div style=&quot;text-align: center&quot;&gt;&lt;span&gt;MPI_Bcast(&lt;/span&gt;&lt;/div&gt;&lt;div style=&quot;text-align: center&quot;&gt;&amp;amp;file_len&lt;/div&gt;)" style="rounded=0;whiteSpace=wrap;html=1;align=left;" parent="3nuBFxr9cyL0pnOWT2aG-5" vertex="1">
          <mxGeometry x="40" y="230" width="65" height="50" as="geometry" />
        </mxCell>
        <mxCell id="a9l5pLSL9QNRwOaksO37-1" value="process 2 (other workers)" style="shape=umlLifeline;perimeter=lifelinePerimeter;container=1;collapsible=0;recursiveResize=0;rounded=0;shadow=0;strokeWidth=1;" parent="1" vertex="1">
          <mxGeometry x="500" y="80" width="160" height="1780" as="geometry" />
        </mxCell>
        <mxCell id="a9l5pLSL9QNRwOaksO37-71" value="&lt;div style=&quot;text-align: center&quot;&gt;Terminate&lt;/div&gt;&lt;div style=&quot;text-align: center&quot;&gt;&lt;/div&gt;" style="rounded=0;whiteSpace=wrap;html=1;align=left;" parent="a9l5pLSL9QNRwOaksO37-1" vertex="1">
          <mxGeometry x="52.82000000000006" y="1720" width="54.37" height="40" as="geometry" />
        </mxCell>
        <mxCell id="a9l5pLSL9QNRwOaksO37-4" value="get_names" style="ellipse;whiteSpace=wrap;html=1;" parent="1" vertex="1">
          <mxGeometry x="125" y="270" width="120" height="30" as="geometry" />
        </mxCell>
        <mxCell id="a9l5pLSL9QNRwOaksO37-6" value="&lt;div style=&quot;text-align: center&quot;&gt;&lt;span&gt;MPI_Isend(&lt;/span&gt;&lt;/div&gt;NULL,&lt;br&gt;0,&lt;br&gt;&lt;div&gt;Empty_MSG,&lt;/div&gt;&lt;div&gt;&amp;amp;pending&lt;/div&gt;)" style="rounded=0;whiteSpace=wrap;html=1;align=left;" parent="1" vertex="1">
          <mxGeometry x="310" y="140" width="120" height="120" as="geometry" />
        </mxCell>
        <mxCell id="a9l5pLSL9QNRwOaksO37-7" value="&lt;div style=&quot;text-align: center&quot;&gt;&lt;span&gt;MPI_Isend(&lt;/span&gt;&lt;/div&gt;NULL,&lt;br&gt;0,&lt;br&gt;&lt;div&gt;Empty_MSG,&lt;/div&gt;&lt;div&gt;&amp;amp;pending&lt;/div&gt;)" style="rounded=0;whiteSpace=wrap;html=1;align=left;" parent="1" vertex="1">
          <mxGeometry x="520" y="140" width="120" height="120" as="geometry" />
        </mxCell>
        <mxCell id="a9l5pLSL9QNRwOaksO37-8" value="read_dictionary" style="ellipse;whiteSpace=wrap;html=1;" parent="1" vertex="1">
          <mxGeometry x="310" y="270" width="120" height="30" as="geometry" />
        </mxCell>
        <mxCell id="a9l5pLSL9QNRwOaksO37-10" value="&lt;div style=&quot;text-align: center&quot;&gt;&lt;span&gt;MPI_Bcast(&lt;/span&gt;&lt;/div&gt;&lt;div style=&quot;text-align: center&quot;&gt;buffer,&lt;/div&gt;&lt;div style=&quot;text-align: center&quot;&gt;file_len&lt;/div&gt;)" style="rounded=0;whiteSpace=wrap;html=1;align=left;" parent="1" vertex="1">
          <mxGeometry x="339.99" y="370" width="65" height="60" as="geometry" />
        </mxCell>
        <mxCell id="a9l5pLSL9QNRwOaksO37-11" value="&lt;div style=&quot;text-align: center&quot;&gt;&lt;span&gt;MPI_Bcast(&lt;/span&gt;&lt;/div&gt;&lt;div style=&quot;text-align: center&quot;&gt;buffer,&lt;/div&gt;&lt;div style=&quot;text-align: center&quot;&gt;file_len&lt;/div&gt;)" style="rounded=0;whiteSpace=wrap;html=1;align=left;" parent="1" vertex="1">
          <mxGeometry x="547.5" y="330" width="65" height="60" as="geometry" />
        </mxCell>
        <mxCell id="a9l5pLSL9QNRwOaksO37-12" value="&lt;div style=&quot;text-align: center&quot;&gt;&lt;span&gt;MPI_Bcast(&lt;/span&gt;&lt;/div&gt;&lt;div style=&quot;text-align: center&quot;&gt;&amp;amp;file_len&lt;/div&gt;)" style="rounded=0;whiteSpace=wrap;html=1;align=left;" parent="1" vertex="1">
          <mxGeometry x="547.5" y="270" width="65" height="50" as="geometry" />
        </mxCell>
        <mxCell id="a9l5pLSL9QNRwOaksO37-13" value="" style="endArrow=classic;html=1;entryX=0;entryY=0.5;entryDx=0;entryDy=0;exitX=1;exitY=0.5;exitDx=0;exitDy=0;" parent="1" source="a9l5pLSL9QNRwOaksO37-9" target="a9l5pLSL9QNRwOaksO37-12" edge="1">
          <mxGeometry width="50" height="50" relative="1" as="geometry">
            <mxPoint x="400" y="340" as="sourcePoint" />
            <mxPoint x="460" y="290" as="targetPoint" />
          </mxGeometry>
        </mxCell>
        <mxCell id="a9l5pLSL9QNRwOaksO37-15" value="" style="endArrow=classic;html=1;entryX=0;entryY=0.5;entryDx=0;entryDy=0;" parent="1" target="a9l5pLSL9QNRwOaksO37-11" edge="1">
          <mxGeometry width="50" height="50" relative="1" as="geometry">
            <mxPoint x="405" y="410" as="sourcePoint" />
            <mxPoint x="455" y="360" as="targetPoint" />
          </mxGeometry>
        </mxCell>
        <mxCell id="a9l5pLSL9QNRwOaksO37-16" value="" style="endArrow=none;html=1;" parent="1" edge="1">
          <mxGeometry width="50" height="50" relative="1" as="geometry">
            <mxPoint x="40" y="130" as="sourcePoint" />
            <mxPoint x="720" y="130" as="targetPoint" />
          </mxGeometry>
        </mxCell>
        <mxCell id="a9l5pLSL9QNRwOaksO37-18" value="&lt;div style=&quot;text-align: center&quot;&gt;&lt;span&gt;MPI_Send(&lt;/span&gt;&lt;/div&gt;&amp;amp;dict_size&lt;br&gt;0,&lt;br&gt;&lt;div&gt;DICT_SIZE_MSG&lt;br&gt;&lt;/div&gt;)" style="rounded=0;whiteSpace=wrap;html=1;align=left;" parent="1" vertex="1">
          <mxGeometry x="310" y="435" width="120" height="90" as="geometry" />
        </mxCell>
        <mxCell id="a9l5pLSL9QNRwOaksO37-19" value="" style="endArrow=classic;html=1;exitX=0;exitY=0.5;exitDx=0;exitDy=0;entryX=1;entryY=0.5;entryDx=0;entryDy=0;" parent="1" source="a9l5pLSL9QNRwOaksO37-18" target="a9l5pLSL9QNRwOaksO37-3" edge="1">
          <mxGeometry width="50" height="50" relative="1" as="geometry">
            <mxPoint x="250" y="500" as="sourcePoint" />
            <mxPoint x="300" y="450" as="targetPoint" />
          </mxGeometry>
        </mxCell>
        <mxCell id="a9l5pLSL9QNRwOaksO37-21" value="&lt;div style=&quot;text-align: center&quot;&gt;&lt;span&gt;MPI_Recv(&lt;/span&gt;&lt;/div&gt;&amp;amp;dict_size,&lt;br&gt;MPI_ANY_SOURCE,&lt;br&gt;&lt;div&gt;DICT_SIZE_MSG,&lt;/div&gt;&lt;div&gt;&amp;amp;pending&lt;/div&gt;)" style="rounded=0;whiteSpace=wrap;html=1;align=left;" parent="1" vertex="1">
          <mxGeometry x="125.01" y="405" width="120" height="120" as="geometry" />
        </mxCell>
        <mxCell id="a9l5pLSL9QNRwOaksO37-22" value="" style="endArrow=classic;html=1;" parent="1" edge="1">
          <mxGeometry width="50" height="50" relative="1" as="geometry">
            <mxPoint x="310" y="210" as="sourcePoint" />
            <mxPoint x="250" y="480" as="targetPoint" />
          </mxGeometry>
        </mxCell>
        <mxCell id="a9l5pLSL9QNRwOaksO37-23" value="" style="endArrow=classic;html=1;exitX=0.003;exitY=0.598;exitDx=0;exitDy=0;exitPerimeter=0;entryX=1;entryY=0.5;entryDx=0;entryDy=0;" parent="1" source="a9l5pLSL9QNRwOaksO37-7" edge="1" target="iXN4UQmjjwn-xcWWt6Ib-1">
          <mxGeometry width="50" height="50" relative="1" as="geometry">
            <mxPoint x="450" y="230" as="sourcePoint" />
            <mxPoint x="260" y="490" as="targetPoint" />
          </mxGeometry>
        </mxCell>
        <mxCell id="a9l5pLSL9QNRwOaksO37-24" value="&lt;div style=&quot;text-align: center&quot;&gt;&lt;span&gt;MPI_Send(&lt;/span&gt;&lt;/div&gt;file_name[assign_cnt],&lt;br&gt;strlen(file_name[assign_cnt]+1),&lt;br&gt;src=1,&lt;br&gt;&lt;div&gt;FILE_NAME_MSG&lt;br&gt;&lt;/div&gt;)" style="rounded=0;whiteSpace=wrap;html=1;align=left;" parent="1" vertex="1">
          <mxGeometry x="96.25" y="530" width="177.5" height="90" as="geometry" />
        </mxCell>
        <mxCell id="a9l5pLSL9QNRwOaksO37-25" value="&lt;div style=&quot;text-align: center&quot;&gt;&lt;span&gt;MPI_Prob(&lt;/span&gt;&lt;/div&gt;&lt;div&gt;0,&lt;/div&gt;&lt;div&gt;FILE_NAME_MSG,&lt;/div&gt;&lt;div&gt;&amp;amp;status&lt;/div&gt;)" style="rounded=0;whiteSpace=wrap;html=1;align=left;" parent="1" vertex="1">
          <mxGeometry x="310" y="540" width="120" height="80" as="geometry" />
        </mxCell>
        <mxCell id="a9l5pLSL9QNRwOaksO37-26" value="&lt;div style=&quot;text-align: center&quot;&gt;&lt;span&gt;MPI_Get_count(&lt;/span&gt;&lt;/div&gt;&lt;div&gt;&lt;span&gt;&amp;amp;status,&lt;/span&gt;&lt;br&gt;&lt;/div&gt;&lt;div&gt;&lt;span&gt;&amp;amp;name_len&lt;/span&gt;&lt;/div&gt;)" style="rounded=0;whiteSpace=wrap;html=1;align=left;" parent="1" vertex="1">
          <mxGeometry x="320.01" y="630" width="100" height="80" as="geometry" />
        </mxCell>
        <mxCell id="a9l5pLSL9QNRwOaksO37-27" value="&lt;div style=&quot;text-align: center&quot;&gt;&lt;span&gt;MPI_Prob(&lt;/span&gt;&lt;/div&gt;&lt;div&gt;0,&lt;/div&gt;&lt;div&gt;FILE_NAME_MSG,&lt;/div&gt;&lt;div&gt;&amp;amp;status&lt;/div&gt;)" style="rounded=0;whiteSpace=wrap;html=1;align=left;" parent="1" vertex="1">
          <mxGeometry x="520" y="405" width="120" height="80" as="geometry" />
        </mxCell>
        <mxCell id="a9l5pLSL9QNRwOaksO37-28" value="&lt;div style=&quot;text-align: center&quot;&gt;&lt;span&gt;MPI_Get_count(&lt;/span&gt;&lt;/div&gt;&lt;div&gt;&lt;span&gt;&amp;amp;status,&lt;/span&gt;&lt;br&gt;&lt;/div&gt;&lt;div&gt;&lt;span&gt;&amp;amp;name_len&lt;/span&gt;&lt;/div&gt;)" style="rounded=0;whiteSpace=wrap;html=1;align=left;" parent="1" vertex="1">
          <mxGeometry x="530" y="505" width="100" height="80" as="geometry" />
        </mxCell>
        <mxCell id="a9l5pLSL9QNRwOaksO37-29" value="&lt;div style=&quot;text-align: center&quot;&gt;&lt;span&gt;MPI_Recv(&lt;/span&gt;&lt;/div&gt;name,&lt;br&gt;name_len,&lt;br&gt;&lt;div&gt;0,&lt;/div&gt;&lt;div&gt;FILE_NAME_MSG&lt;/div&gt;)" style="rounded=0;whiteSpace=wrap;html=1;align=left;" parent="1" vertex="1">
          <mxGeometry x="310.01" y="720" width="120" height="100" as="geometry" />
        </mxCell>
        <mxCell id="a9l5pLSL9QNRwOaksO37-30" value="&lt;div style=&quot;text-align: center&quot;&gt;&lt;span&gt;MPI_Recv(&lt;/span&gt;&lt;/div&gt;name,&lt;br&gt;name_len,&lt;br&gt;&lt;div&gt;0,&lt;/div&gt;&lt;div&gt;FILE_NAME_MSG&lt;/div&gt;)" style="rounded=0;whiteSpace=wrap;html=1;align=left;" parent="1" vertex="1">
          <mxGeometry x="520" y="620" width="120" height="120" as="geometry" />
        </mxCell>
        <mxCell id="a9l5pLSL9QNRwOaksO37-32" value="&lt;div style=&quot;text-align: center&quot;&gt;&lt;span&gt;MPI_Send(&lt;/span&gt;&lt;/div&gt;file_name[assign_cnt],&lt;br&gt;strlen(file_name[assign_cnt]+1),&lt;br&gt;src=2,&lt;br&gt;&lt;div&gt;FILE_NAME_MSG&lt;br&gt;&lt;/div&gt;)" style="rounded=0;whiteSpace=wrap;html=1;align=left;" parent="1" vertex="1">
          <mxGeometry x="96.25" y="770" width="177.5" height="90" as="geometry" />
        </mxCell>
        <mxCell id="a9l5pLSL9QNRwOaksO37-33" value="" style="endArrow=classic;html=1;exitX=1;exitY=0.5;exitDx=0;exitDy=0;" parent="1" source="a9l5pLSL9QNRwOaksO37-32" edge="1">
          <mxGeometry width="50" height="50" relative="1" as="geometry">
            <mxPoint x="290" y="930" as="sourcePoint" />
            <mxPoint x="460" y="815" as="targetPoint" />
          </mxGeometry>
        </mxCell>
        <mxCell id="a9l5pLSL9QNRwOaksO37-34" value="" style="endArrow=classic;html=1;exitX=1;exitY=0.5;exitDx=0;exitDy=0;entryX=0;entryY=0.5;entryDx=0;entryDy=0;" parent="1" source="a9l5pLSL9QNRwOaksO37-24" target="a9l5pLSL9QNRwOaksO37-25" edge="1">
          <mxGeometry width="50" height="50" relative="1" as="geometry">
            <mxPoint x="310" y="950" as="sourcePoint" />
            <mxPoint x="360" y="900" as="targetPoint" />
          </mxGeometry>
        </mxCell>
        <mxCell id="a9l5pLSL9QNRwOaksO37-35" value="&lt;div style=&quot;text-align: center&quot;&gt;&lt;span&gt;MPI_Send(&lt;/span&gt;&lt;/div&gt;proflie,&lt;br&gt;dict_size,&lt;br&gt;0&lt;br&gt;&lt;div&gt;VECTOR_MSG&lt;br&gt;&lt;/div&gt;)" style="rounded=0;whiteSpace=wrap;html=1;align=left;" parent="1" vertex="1">
          <mxGeometry x="325.62" y="830" width="88.75" height="90" as="geometry" />
        </mxCell>
        <mxCell id="a9l5pLSL9QNRwOaksO37-36" value="&lt;div style=&quot;text-align: center&quot;&gt;&lt;span&gt;MPI_Send(&lt;/span&gt;&lt;/div&gt;proflie,&lt;br&gt;dict_size,&lt;br&gt;0&lt;br&gt;&lt;div&gt;VECTOR_MSG&lt;br&gt;&lt;/div&gt;)" style="rounded=0;whiteSpace=wrap;html=1;align=left;" parent="1" vertex="1">
          <mxGeometry x="541.25" y="1125" width="88.75" height="90" as="geometry" />
        </mxCell>
        <mxCell id="a9l5pLSL9QNRwOaksO37-37" value="&lt;div style=&quot;text-align: center&quot;&gt;&lt;span&gt;MPI_Recv(&lt;/span&gt;&lt;/div&gt;&amp;amp;dict_size,&lt;br&gt;MPI_ANY_SOURCE,&lt;br&gt;&lt;div&gt;DICT_SIZE_MSG,&lt;/div&gt;&lt;div&gt;&amp;amp;pending&lt;/div&gt;)" style="rounded=0;whiteSpace=wrap;html=1;align=left;" parent="1" vertex="1">
          <mxGeometry x="125" y="870" width="120" height="120" as="geometry" />
        </mxCell>
        <mxCell id="a9l5pLSL9QNRwOaksO37-38" value="" style="endArrow=classic;html=1;entryX=1;entryY=0.5;entryDx=0;entryDy=0;exitX=0;exitY=0.5;exitDx=0;exitDy=0;" parent="1" source="a9l5pLSL9QNRwOaksO37-35" target="a9l5pLSL9QNRwOaksO37-37" edge="1">
          <mxGeometry width="50" height="50" relative="1" as="geometry">
            <mxPoint x="280" y="900" as="sourcePoint" />
            <mxPoint x="260" y="840" as="targetPoint" />
          </mxGeometry>
        </mxCell>
        <mxCell id="a9l5pLSL9QNRwOaksO37-39" value="&lt;div style=&quot;text-align: center&quot;&gt;&lt;span&gt;MPI_Send(&lt;/span&gt;&lt;/div&gt;file_name[assign_cnt],&lt;br&gt;strlen(file_name[assign_cnt]+1),&lt;br&gt;src=1,&lt;br&gt;&lt;div&gt;FILE_NAME_MSG&lt;br&gt;&lt;/div&gt;)" style="rounded=0;whiteSpace=wrap;html=1;align=left;" parent="1" vertex="1">
          <mxGeometry x="96.25" y="1000" width="177.5" height="90" as="geometry" />
        </mxCell>
        <mxCell id="a9l5pLSL9QNRwOaksO37-41" value="&lt;div style=&quot;text-align: center&quot;&gt;&lt;span&gt;MPI_Recv(&lt;/span&gt;&lt;/div&gt;name,&lt;br&gt;name_len,&lt;br&gt;&lt;div&gt;0,&lt;/div&gt;&lt;div&gt;FILE_NAME_MSG&lt;/div&gt;)" style="rounded=0;whiteSpace=wrap;html=1;align=left;" parent="1" vertex="1">
          <mxGeometry x="309.99" y="1110" width="120" height="120" as="geometry" />
        </mxCell>
        <mxCell id="a9l5pLSL9QNRwOaksO37-42" value="&lt;div style=&quot;text-align: center&quot;&gt;&lt;span&gt;MPI_Recv(&lt;/span&gt;&lt;/div&gt;&amp;amp;dict_size,&lt;br&gt;MPI_ANY_SOURCE,&lt;br&gt;&lt;div&gt;DICT_SIZE_MSG,&lt;/div&gt;&lt;div&gt;&amp;amp;pending&lt;/div&gt;)" style="rounded=0;whiteSpace=wrap;html=1;align=left;" parent="1" vertex="1">
          <mxGeometry x="125.01" y="1210" width="120" height="120" as="geometry" />
        </mxCell>
        <mxCell id="a9l5pLSL9QNRwOaksO37-43" value="" style="endArrow=classic;html=1;entryX=1;entryY=0.5;entryDx=0;entryDy=0;" parent="1" source="a9l5pLSL9QNRwOaksO37-36" target="a9l5pLSL9QNRwOaksO37-42" edge="1">
          <mxGeometry width="50" height="50" relative="1" as="geometry">
            <mxPoint x="135.62" y="1320" as="sourcePoint" />
            <mxPoint x="185.62" y="1270" as="targetPoint" />
          </mxGeometry>
        </mxCell>
        <mxCell id="a9l5pLSL9QNRwOaksO37-44" value="&lt;div style=&quot;text-align: center&quot;&gt;&lt;span&gt;MPI_Recv(&lt;/span&gt;&lt;/div&gt;name,&lt;br&gt;name_len,&lt;br&gt;&lt;div&gt;0,&lt;/div&gt;&lt;div&gt;FILE_NAME_MSG&lt;/div&gt;)" style="rounded=0;whiteSpace=wrap;html=1;align=left;" parent="1" vertex="1">
          <mxGeometry x="520" y="1395" width="120" height="120" as="geometry" />
        </mxCell>
        <mxCell id="a9l5pLSL9QNRwOaksO37-45" value="&lt;div style=&quot;text-align: center&quot;&gt;&lt;span&gt;MPI_Send(&lt;/span&gt;&lt;/div&gt;file_name[assign_cnt],&lt;br&gt;strlen(file_name[assign_cnt]+1),&lt;br&gt;src=2,&lt;br&gt;&lt;div&gt;FILE_NAME_MSG&lt;br&gt;&lt;/div&gt;)" style="rounded=0;whiteSpace=wrap;html=1;align=left;" parent="1" vertex="1">
          <mxGeometry x="96.25" y="1340" width="177.5" height="90" as="geometry" />
        </mxCell>
        <mxCell id="a9l5pLSL9QNRwOaksO37-46" value="" style="endArrow=classic;html=1;exitX=1;exitY=0.5;exitDx=0;exitDy=0;entryX=0;entryY=0.5;entryDx=0;entryDy=0;" parent="1" source="a9l5pLSL9QNRwOaksO37-45" target="a9l5pLSL9QNRwOaksO37-62" edge="1">
          <mxGeometry width="50" height="50" relative="1" as="geometry">
            <mxPoint x="134.37" y="1500" as="sourcePoint" />
            <mxPoint x="184.37" y="1450" as="targetPoint" />
          </mxGeometry>
        </mxCell>
        <mxCell id="a9l5pLSL9QNRwOaksO37-47" value="&lt;div style=&quot;text-align: center&quot;&gt;&lt;span&gt;MPI_Recv(&lt;/span&gt;&lt;/div&gt;&amp;amp;dict_size,&lt;br&gt;MPI_ANY_SOURCE,&lt;br&gt;&lt;div&gt;DICT_SIZE_MSG,&lt;/div&gt;&lt;div&gt;&amp;amp;pending&lt;/div&gt;)" style="rounded=0;whiteSpace=wrap;html=1;align=left;" parent="1" vertex="1">
          <mxGeometry x="121.25" y="1440" width="120" height="120" as="geometry" />
        </mxCell>
        <mxCell id="a9l5pLSL9QNRwOaksO37-48" value="" style="endArrow=classic;html=1;entryX=1;entryY=0.5;entryDx=0;entryDy=0;exitX=0;exitY=0.5;exitDx=0;exitDy=0;" parent="1" source="a9l5pLSL9QNRwOaksO37-49" target="a9l5pLSL9QNRwOaksO37-47" edge="1">
          <mxGeometry width="50" height="50" relative="1" as="geometry">
            <mxPoint x="280" y="1500" as="sourcePoint" />
            <mxPoint x="260" y="1440" as="targetPoint" />
          </mxGeometry>
        </mxCell>
        <mxCell id="a9l5pLSL9QNRwOaksO37-49" value="&lt;div style=&quot;text-align: center&quot;&gt;&lt;span&gt;MPI_Send(&lt;/span&gt;&lt;/div&gt;proflie,&lt;br&gt;dict_size,&lt;br&gt;0&lt;br&gt;&lt;div&gt;VECTOR_MSG&lt;br&gt;&lt;/div&gt;)" style="rounded=0;whiteSpace=wrap;html=1;align=left;" parent="1" vertex="1">
          <mxGeometry x="325.62" y="1370" width="88.75" height="90" as="geometry" />
        </mxCell>
        <mxCell id="a9l5pLSL9QNRwOaksO37-50" value="&lt;div style=&quot;text-align: center&quot;&gt;&lt;span&gt;MPI_Send(&lt;/span&gt;&lt;/div&gt;NULL,&lt;br&gt;0,&lt;br&gt;src=1,&lt;br&gt;&lt;div&gt;FILE_NAME_MSG&lt;br&gt;&lt;/div&gt;)" style="rounded=0;whiteSpace=wrap;html=1;align=left;" parent="1" vertex="1">
          <mxGeometry x="129.38" y="1570" width="103.75" height="90" as="geometry" />
        </mxCell>
        <mxCell id="a9l5pLSL9QNRwOaksO37-51" value="" style="endArrow=classic;html=1;exitX=1;exitY=0.5;exitDx=0;exitDy=0;entryX=0;entryY=0.5;entryDx=0;entryDy=0;" parent="1" source="a9l5pLSL9QNRwOaksO37-50" target="a9l5pLSL9QNRwOaksO37-66" edge="1">
          <mxGeometry width="50" height="50" relative="1" as="geometry">
            <mxPoint x="314.37" y="1890" as="sourcePoint" />
            <mxPoint x="364.37" y="1840" as="targetPoint" />
          </mxGeometry>
        </mxCell>
        <mxCell id="a9l5pLSL9QNRwOaksO37-54" value="" style="endArrow=classic;html=1;exitX=0.107;exitY=1.047;exitDx=0;exitDy=0;exitPerimeter=0;entryX=0;entryY=0.25;entryDx=0;entryDy=0;" parent="1" source="a9l5pLSL9QNRwOaksO37-25" target="a9l5pLSL9QNRwOaksO37-29" edge="1">
          <mxGeometry width="50" height="50" relative="1" as="geometry">
            <mxPoint x="230" y="740" as="sourcePoint" />
            <mxPoint x="280" y="690" as="targetPoint" />
          </mxGeometry>
        </mxCell>
        <mxCell id="a9l5pLSL9QNRwOaksO37-55" value="" style="endArrow=classic;html=1;entryX=0;entryY=0.25;entryDx=0;entryDy=0;" parent="1" target="a9l5pLSL9QNRwOaksO37-27" edge="1">
          <mxGeometry width="50" height="50" relative="1" as="geometry">
            <mxPoint x="460" y="820" as="sourcePoint" />
            <mxPoint x="280" y="560" as="targetPoint" />
          </mxGeometry>
        </mxCell>
        <mxCell id="a9l5pLSL9QNRwOaksO37-56" value="" style="endArrow=classic;html=1;exitX=0;exitY=1;exitDx=0;exitDy=0;entryX=0;entryY=0;entryDx=0;entryDy=0;" parent="1" source="a9l5pLSL9QNRwOaksO37-27" target="a9l5pLSL9QNRwOaksO37-30" edge="1">
          <mxGeometry width="50" height="50" relative="1" as="geometry">
            <mxPoint x="230" y="790" as="sourcePoint" />
            <mxPoint x="280" y="740" as="targetPoint" />
          </mxGeometry>
        </mxCell>
        <mxCell id="a9l5pLSL9QNRwOaksO37-59" value="" style="endArrow=classic;html=1;entryX=0;entryY=0.5;entryDx=0;entryDy=0;" parent="1" target="a9l5pLSL9QNRwOaksO37-57" edge="1">
          <mxGeometry width="50" height="50" relative="1" as="geometry">
            <mxPoint x="270" y="1070" as="sourcePoint" />
            <mxPoint x="280" y="1060" as="targetPoint" />
          </mxGeometry>
        </mxCell>
        <mxCell id="a9l5pLSL9QNRwOaksO37-61" value="" style="endArrow=classic;html=1;exitX=0;exitY=1;exitDx=0;exitDy=0;entryX=0;entryY=0;entryDx=0;entryDy=0;" parent="1" source="a9l5pLSL9QNRwOaksO37-57" target="a9l5pLSL9QNRwOaksO37-41" edge="1">
          <mxGeometry width="50" height="50" relative="1" as="geometry">
            <mxPoint x="230" y="1110" as="sourcePoint" />
            <mxPoint x="280" y="1060" as="targetPoint" />
          </mxGeometry>
        </mxCell>
        <mxCell id="a9l5pLSL9QNRwOaksO37-62" value="&lt;div style=&quot;text-align: center&quot;&gt;&lt;span&gt;MPI_Prob(&lt;/span&gt;&lt;/div&gt;&lt;div&gt;0,&lt;/div&gt;&lt;div&gt;FILE_NAME_MSG,&lt;/div&gt;&lt;div&gt;&amp;amp;status&lt;/div&gt;)" style="rounded=0;whiteSpace=wrap;html=1;align=left;" parent="1" vertex="1">
          <mxGeometry x="520" y="1220" width="120" height="80" as="geometry" />
        </mxCell>
        <mxCell id="a9l5pLSL9QNRwOaksO37-63" value="&lt;div style=&quot;text-align: center&quot;&gt;&lt;span&gt;MPI_Get_count(&lt;/span&gt;&lt;/div&gt;&lt;div&gt;&lt;span&gt;&amp;amp;status,&lt;/span&gt;&lt;br&gt;&lt;/div&gt;&lt;div&gt;&lt;span&gt;&amp;amp;name_len&lt;/span&gt;&lt;/div&gt;)" style="rounded=0;whiteSpace=wrap;html=1;align=left;" parent="1" vertex="1">
          <mxGeometry x="530" y="1310" width="100" height="80" as="geometry" />
        </mxCell>
        <mxCell id="a9l5pLSL9QNRwOaksO37-64" value="" style="endArrow=classic;html=1;exitX=0.01;exitY=0.882;exitDx=0;exitDy=0;exitPerimeter=0;entryX=0.01;entryY=0.075;entryDx=0;entryDy=0;entryPerimeter=0;" parent="1" source="a9l5pLSL9QNRwOaksO37-62" target="a9l5pLSL9QNRwOaksO37-44" edge="1">
          <mxGeometry width="50" height="50" relative="1" as="geometry">
            <mxPoint x="230" y="1480" as="sourcePoint" />
            <mxPoint x="280" y="1430" as="targetPoint" />
          </mxGeometry>
        </mxCell>
        <mxCell id="a9l5pLSL9QNRwOaksO37-65" value="&lt;div style=&quot;text-align: center&quot;&gt;&lt;span&gt;MPI_Get_count(&lt;/span&gt;&lt;/div&gt;&lt;div&gt;&lt;span&gt;&amp;amp;status,&lt;/span&gt;&lt;br&gt;&lt;/div&gt;&lt;div&gt;&lt;span&gt;&amp;amp;name_len&lt;/span&gt;&lt;/div&gt;)" style="rounded=0;whiteSpace=wrap;html=1;align=left;" parent="1" vertex="1">
          <mxGeometry x="322.49" y="1560" width="100" height="80" as="geometry" />
        </mxCell>
        <mxCell id="a9l5pLSL9QNRwOaksO37-66" value="&lt;div style=&quot;text-align: center&quot;&gt;&lt;span&gt;MPI_Prob(&lt;/span&gt;&lt;/div&gt;&lt;div&gt;0,&lt;/div&gt;&lt;div&gt;FILE_NAME_MSG,&lt;/div&gt;&lt;div&gt;&amp;amp;status&lt;/div&gt;)" style="rounded=0;whiteSpace=wrap;html=1;align=left;" parent="1" vertex="1">
          <mxGeometry x="309.99" y="1470" width="120" height="80" as="geometry" />
        </mxCell>
        <mxCell id="a9l5pLSL9QNRwOaksO37-68" value="&lt;div style=&quot;text-align: center&quot;&gt;&lt;span&gt;MPI_Send(&lt;/span&gt;&lt;/div&gt;proflie,&lt;br&gt;dict_size,&lt;br&gt;0&lt;br&gt;&lt;div&gt;VECTOR_MSG&lt;br&gt;&lt;/div&gt;)" style="rounded=0;whiteSpace=wrap;html=1;align=left;" parent="1" vertex="1">
          <mxGeometry x="535.63" y="1520" width="88.75" height="90" as="geometry" />
        </mxCell>
        <mxCell id="a9l5pLSL9QNRwOaksO37-69" value="&lt;div style=&quot;text-align: center&quot;&gt;&lt;span&gt;MPI_Prob(&lt;/span&gt;&lt;/div&gt;&lt;div&gt;0,&lt;/div&gt;&lt;div&gt;FILE_NAME_MSG,&lt;/div&gt;&lt;div&gt;&amp;amp;status&lt;/div&gt;)" style="rounded=0;whiteSpace=wrap;html=1;align=left;" parent="1" vertex="1">
          <mxGeometry x="520" y="1620" width="120" height="80" as="geometry" />
        </mxCell>
        <mxCell id="a9l5pLSL9QNRwOaksO37-70" value="&lt;div style=&quot;text-align: center&quot;&gt;&lt;span&gt;MPI_Get_count(&lt;/span&gt;&lt;/div&gt;&lt;div&gt;&lt;span&gt;&amp;amp;status,&lt;/span&gt;&lt;br&gt;&lt;/div&gt;&lt;div&gt;&lt;span&gt;&amp;amp;name_len&lt;/span&gt;&lt;/div&gt;)" style="rounded=0;whiteSpace=wrap;html=1;align=left;" parent="1" vertex="1">
          <mxGeometry x="530" y="1710" width="100" height="80" as="geometry" />
        </mxCell>
        <mxCell id="a9l5pLSL9QNRwOaksO37-73" value="&lt;div style=&quot;text-align: center&quot;&gt;&lt;span&gt;MPI_Send(&lt;/span&gt;&lt;/div&gt;NULL,&lt;br&gt;0,&lt;br&gt;src=2,&lt;br&gt;&lt;div&gt;FILE_NAME_MSG&lt;br&gt;&lt;/div&gt;)" style="rounded=0;whiteSpace=wrap;html=1;align=left;" parent="1" vertex="1">
          <mxGeometry x="133.12" y="1800" width="103.75" height="90" as="geometry" />
        </mxCell>
        <mxCell id="a9l5pLSL9QNRwOaksO37-74" value="" style="endArrow=classic;html=1;entryX=1.035;entryY=0.575;entryDx=0;entryDy=0;entryPerimeter=0;exitX=0.003;exitY=0.851;exitDx=0;exitDy=0;exitPerimeter=0;" parent="1" source="a9l5pLSL9QNRwOaksO37-68" target="a9l5pLSL9QNRwOaksO37-72" edge="1">
          <mxGeometry width="50" height="50" relative="1" as="geometry">
            <mxPoint x="230" y="1800" as="sourcePoint" />
            <mxPoint x="280" y="1750" as="targetPoint" />
          </mxGeometry>
        </mxCell>
        <mxCell id="a9l5pLSL9QNRwOaksO37-75" value="" style="endArrow=classic;html=1;exitX=1;exitY=0.5;exitDx=0;exitDy=0;entryX=0;entryY=0.5;entryDx=0;entryDy=0;" parent="1" source="a9l5pLSL9QNRwOaksO37-73" target="a9l5pLSL9QNRwOaksO37-69" edge="1">
          <mxGeometry width="50" height="50" relative="1" as="geometry">
            <mxPoint x="230" y="1800" as="sourcePoint" />
            <mxPoint x="280" y="1750" as="targetPoint" />
          </mxGeometry>
        </mxCell>
        <mxCell id="iXN4UQmjjwn-xcWWt6Ib-1" value="&lt;div style=&quot;text-align: center&quot;&gt;&lt;span&gt;MPI_Recv(&lt;/span&gt;&lt;/div&gt;&amp;amp;dict_size,&lt;br&gt;MPI_ANY_SOURCE,&lt;br&gt;&lt;div&gt;DICT_SIZE_MSG,&lt;/div&gt;&lt;div&gt;&amp;amp;pending&lt;/div&gt;)" style="rounded=0;whiteSpace=wrap;html=1;align=left;" vertex="1" parent="1">
          <mxGeometry x="125" y="630" width="120" height="120" as="geometry" />
        </mxCell>
        <mxCell id="iXN4UQmjjwn-xcWWt6Ib-5" value="&lt;div style=&quot;font-size: 14px&quot;&gt;&lt;font style=&quot;font-size: 14px&quot;&gt;Manager process(process 0) use MPI_Irecv to avoid the deadlock situation, because it can keep execute following functions and do not need to just wait for the data.&lt;/font&gt;&lt;/div&gt;&lt;div style=&quot;font-size: 14px&quot;&gt;&lt;span&gt;&lt;font style=&quot;font-size: 14px&quot;&gt;&amp;nbsp;&lt;/font&gt;&lt;/span&gt;&lt;/div&gt;&lt;div style=&quot;font-size: 14px&quot;&gt;&lt;span&gt;&lt;font style=&quot;font-size: 14px&quot;&gt;And for the workers(process 1 and 2), they use MPI_Isend to make sure that they can keep doing the following functions even if the sending message has not been sent out(still in buffer).&lt;/font&gt;&lt;/span&gt;&lt;/div&gt;&lt;div style=&quot;font-size: 14px&quot;&gt;&lt;span&gt;&lt;font style=&quot;font-size: 14px&quot;&gt;&lt;br&gt;&lt;/font&gt;&lt;/span&gt;&lt;/div&gt;&lt;div style=&quot;font-size: 14px&quot;&gt;&lt;span&gt;&lt;font style=&quot;font-size: 14px&quot;&gt;If we change MPI_Isend to MPI_Send, the MPI_Send function will keep supervising the buffer and will return only when the message was sent out, so the process can not do anything until it return.&amp;nbsp; &amp;nbsp;And if we change MPI_Irecv to MPI_Recv,&amp;nbsp; then assume the buffer has no space, the MPI_Send can not return and so does MPI_Recv, all the process can not do anything and cause the deadlock.&amp;nbsp; &amp;nbsp;So, if we use non-blocking communication, it can avoid deadlock.&lt;/font&gt;&lt;/span&gt;&lt;/div&gt;&lt;div style=&quot;font-size: 14px&quot;&gt;&lt;font style=&quot;font-size: 14px&quot;&gt;&amp;nbsp;&amp;nbsp;&lt;/font&gt;&lt;/div&gt;" style="text;html=1;strokeColor=none;fillColor=none;align=left;verticalAlign=middle;whiteSpace=wrap;rounded=0;" vertex="1" parent="1">
          <mxGeometry x="150" y="1900" width="510" height="250" as="geometry" />
        </mxCell>
        <mxCell id="iXN4UQmjjwn-xcWWt6Ib-10" value="B07505035 張容誠 discuss with B07505027 張瀚文 and B07505032 張博皓" style="text;html=1;strokeColor=none;fillColor=none;align=center;verticalAlign=middle;whiteSpace=wrap;rounded=0;" vertex="1" parent="1">
          <mxGeometry x="150" y="2140" width="470" height="20" as="geometry" />
        </mxCell>
      </root>
    </mxGraphModel>
  </diagram>
</mxfile>
